<svg xmlns="http://www.w3.org/2000/svg" id="diagram" width="310" height="310">
  <defs>
    <clipPath id="clipPath-0">
      <rect x="5.0" y="5.0" width="300.0" height="300.0"/>
    </clipPath>
    <clipPath id="clipPath-1">
      <rect x="5.0" y="5.0" width="300.0" height="300.0"/>
    </clipPath>
  </defs>
  <g id="grid-axes">
    <g id="grid" stroke="#ccc" stroke-width="1">
      <line id="line-0" x1="18.6" y1="305.0" x2="18.6" y2="5.0"/>
      <line id="line-1" x1="52.7" y1="305.0" x2="52.7" y2="5.0"/>
      <line id="line-2" x1="86.8" y1="305.0" x2="86.8" y2="5.0"/>
      <line id="line-3" x1="120.9" y1="305.0" x2="120.9" y2="5.0"/>
      <line id="line-4" x1="155.0" y1="305.0" x2="155.0" y2="5.0"/>
      <line id="line-5" x1="189.1" y1="305.0" x2="189.1" y2="5.0"/>
      <line id="line-6" x1="223.2" y1="305.0" x2="223.2" y2="5.0"/>
      <line id="line-7" x1="257.3" y1="305.0" x2="257.3" y2="5.0"/>
      <line id="line-8" x1="291.4" y1="305.0" x2="291.4" y2="5.0"/>
      <line id="line-9" x1="5.0" y1="295.6" x2="305.0" y2="295.6"/>
      <line id="line-10" x1="5.0" y1="272.2" x2="305.0" y2="272.2"/>
      <line id="line-11" x1="5.0" y1="248.8" x2="305.0" y2="248.8"/>
      <line id="line-12" x1="5.0" y1="225.3" x2="305.0" y2="225.3"/>
      <line id="line-13" x1="5.0" y1="201.9" x2="305.0" y2="201.9"/>
      <line id="line-14" x1="5.0" y1="178.4" x2="305.0" y2="178.4"/>
      <line id="line-15" x1="5.0" y1="155.0" x2="305.0" y2="155.0"/>
      <line id="line-16" x1="5.0" y1="131.6" x2="305.0" y2="131.6"/>
      <line id="line-17" x1="5.0" y1="108.1" x2="305.0" y2="108.1"/>
      <line id="line-18" x1="5.0" y1="84.7" x2="305.0" y2="84.7"/>
      <line id="line-19" x1="5.0" y1="61.2" x2="305.0" y2="61.2"/>
      <line id="line-20" x1="5.0" y1="37.8" x2="305.0" y2="37.8"/>
      <line id="line-21" x1="5.0" y1="14.4" x2="305.0" y2="14.4"/>
    </g>
    <g id="axes" stroke="black" stroke-width="2">
      <line id="line-22" x1="5.0" y1="295.6" x2="305.0" y2="295.6" stroke="black" stroke-width="2"/>
      <line id="line-23" x1="18.6" y1="305.0" x2="18.6" y2="5.0" stroke="black" stroke-width="2"/>
      <g id="g-0"/>
    </g>
  </g>
</svg>
