<svg xmlns="http://www.w3.org/2000/svg" xmlns:xlink="http://www.w3.org/1999/xlink" xmlns:inkscape="http://www.inkscape.org/namespaces/inkscape" version="1.1" width="128" height="128" viewBox="0 0 128 128">
<defs>
<path id="font_1_1" d="M.6589966 .23046875C.6759949 .23046875 .69400027 .23046875 .69400027 .25045777 .69400027 .27046205 .6759949 .27046205 .6589966 .27046205H.117996219C.100997928 .27046205 .08299255 .27046205 .08299255 .25045777 .08299255 .23046875 .100997928 .23046875 .117996219 .23046875H.6589966Z"/>
<path id="font_2_3" d="M.13198853 .327713V.35173036C.13198853 .6047821 .2559967 .64100649 .30699159 .64100649 .33099366 .64100649 .37298585 .634964 .394989 .6007538 .37998963 .6007538 .33999635 .6007538 .33999635 .5557556 .33999635 .524765 .3639984 .5097656 .38598634 .5097656 .4019928 .5097656 .43199159 .51875308 .43199159 .5577545 .43199159 .6178589 .3880005 .6660156 .30499269 .6660156 .1769867 .6660156 .041992189 .5367584 .041992189 .31570436 .041992189 .048553468 .1579895-.022460938 .25099183-.022460938 .3619995-.022460938 .45700074 .07156372 .45700074 .2036438 .45700074 .33070375 .36799623 .4267578 .25698854 .4267578 .18899536 .4267578 .1519928 .37573243 .13198853 .327713M.25099183 .0055389406C.18798828 .0055389406 .1579895 .06556702 .1519928 .080566409 .13398743 .127594 .13398743 .2076416 .13398743 .22564698 .13398743 .30369569 .1659851 .40374757 .2559967 .40374757 .27198792 .40374757 .31799317 .40374757 .34899903 .34172059 .36698915 .30470277 .36698915 .2536621 .36698915 .20463562 .36698915 .15661621 .36698915 .10658264 .34999085 .0705719 .31999208 .010528564 .27398683 .0055389406 .25099183 .0055389406Z"/>
<path id="font_2_2" d="M.2939911 .16503906V.07800293C.2939911 .041992189 .2919922 .0309906 .21798706 .0309906H.19699097V0C.23799134 .0029907227 .2899933 .0029907227 .33198548 .0029907227 .37399293 .0029907227 .4269867 .0029907227 .46798707 0V.0309906H.44699098C.37298585 .0309906 .37098695 .041992189 .37098695 .07800293V.16503906H.47099305V.19602967H.37098695V.65075686C.37098695 .67074587 .37098695 .6767578 .35499574 .6767578 .34599305 .6767578 .34298707 .6767578 .33499146 .66474917L.027999878 .19602967V.16503906H.2939911M.2999878 .19602967H.055999757L.2999878 .5688019V.19602967Z"/>
<path id="font_2_1" d="M.1269989 .07699585 .23298645 .18003845C.3889923 .31811524 .44898988 .3721466 .44898988 .47216798 .44898988 .5860901 .35899354 .6660156 .23699951 .6660156 .12399292 .6660156 .049987794 .57411196 .049987794 .48516847 .049987794 .4291687 .099990848 .4291687 .102996829 .4291687 .11999512 .4291687 .15499878 .44117738 .15499878 .48217774 .15499878 .5081787 .13699341 .5341797 .101989749 .5341797 .09399414 .5341797 .09199524 .5341797 .08898926 .5331726 .11199951 .59806826 .1659851 .63500979 .22399903 .63500979 .31498719 .63500979 .35798646 .5541382 .35798646 .47216798 .35798646 .39215089 .30799867 .31311036 .25299073 .25108338L.06098938 .036987306C.049987794 .025985718 .049987794 .023986817 .049987794 0H.42099L.44898988 .17404175H.42399598C.4189911 .14402771 .4119873 .1000061 .4019928 .084991458 .394989 .07699585 .32899476 .07699585 .30699159 .07699585H.1269989Z"/>
<clipPath id="clip_3">
<path transform="matrix(.50004,0,0,-.50004,1.3906746,126.15196)" d="M0 0H226.1431V226.1501H0Z"/>
</clipPath>
<path id="font_4_2" d="M.49198915 .40434266C.45498658 .39733888 .44400025 .3653412 .44400025 .3503418 .44400025 .33132936 .45799256 .31433106 .48298646 .31433106 .5109863 .31433106 .5379944 .33833314 .5379944 .3733368 .5379944 .41937257 .48799134 .4423828 .44099427 .4423828 .3809967 .4423828 .34599305 .38934327 .33399964 .3683319 .31498719 .41737367 .2709961 .4423828 .22299195 .4423828 .115997318 .4423828 .057998659 .31433106 .057998659 .28833009 .057998659 .2793274 .06498718 .2763214 .07199097 .2763214 .08099365 .2763214 .083999637 .2813263 .085998538 .287323 .116989139 .38633729 .18299866 .41737367 .22099304 .41737367 .25 .41737367 .27598573 .3983307 .27598573 .35133363 .27598573 .31533814 .23298645 .15530396 .21998596 .107284549 .21199036 .076293949 .18199158 .014251709 .1269989 .014251709 .10699463 .014251709 .085998538 .021270752 .07598877 .027282715 .102996829 .032287599 .12298584 .055282594 .12298584 .08128357 .12298584 .106292728 .10398865 .11729431 .084991458 .11729431 .055999757 .11729431 .02999878 .092285159 .02999878 .058288576 .02999878 .009246826 .083999637-.0107421879 .12599182-.0107421879 .18399048-.0107421879 .21798706 .03729248 .23298645 .06428528 .2579956-.0017547608 .31698609-.0107421879 .34399415-.0107421879 .45199586-.0107421879 .5089874 .11929321 .5089874 .14329529 .5089874 .14830017 .5059967 .15530396 .49598695 .15530396 .4850006 .15530396 .48399354 .1512909 .47898866 .1362915 .45700074 .06428528 .39898683 .014251709 .34700013 .014251709 .31799317 .014251709 .29100038 .032287599 .29100038 .08029175 .29100038 .10229492 .30499269 .15730286 .31399537 .1953125 .31799317 .21331787 .34498597 .32133485 .34700013 .32833863 .35899354 .3643341 .3889923 .41737367 .43998719 .41737367 .45799256 .41737367 .47698976 .41436769 .49198915 .40434266Z"/>
<path id="font_4_1" d="M.37399293 .3996582H.46398927C.48399354 .3996582 .49398805 .3996582 .49398805 .41766358 .49398805 .43066407 .48399354 .43066407 .46499635 .43066407H.37998963C.3909912 .49082948 .40499879 .5730438 .41799928 .62705996 .4269867 .6660614 .45098878 .68006899 .47099305 .68006899 .47698976 .68006899 .5 .67807009 .5169983 .6660614 .49699403 .66204836 .46798707 .6440582 .46798707 .61105349 .46798707 .5860596 .4869995 .575058 .5059967 .575058 .5329895 .575058 .5609894 .59706118 .5609894 .63505557 .5609894 .68006899 .5169983 .7050781 .46998597 .7050781 .4249878 .7050781 .37998963 .6730652 .35899354 .63204959 .33699037 .5890503 .32998658 .5499878 .30899049 .43066407H.23699951C.21798706 .43066407 .20599365 .43066407 .20599365 .4126587 .20599365 .3996582 .21699524 .3996582 .23498535 .3996582H.30299378C.2749939 .25474549 .23999024 .054855348 .21798706-.049087526 .20599365-.10406494 .18998719-.18008423 .14199829-.18008423 .1269989-.18008423 .10699463-.17407227 .09700012-.16607666 .12199402-.1620636 .14698792-.1410675 .14698792-.111068729 .14698792-.08607483 .12799073-.07507324 .10899353-.07507324 .08198547-.07507324 .053985597-.097076419 .053985597-.1350708 .053985597-.18109131 .099990848-.20507813 .14199829-.20507813 .24398804-.20507813 .29100038-.039093019 .30699159 .04685974L.37399293 .3996582Z"/>
<path id="font_5_1" d="M.34098817-.23803711C.34098817-.23303223 .33799745-.23002625 .33198548-.22303772 .20298767-.105026248 .1639862 .07498169 .1639862 .24996948 .1639862 .40498353 .19400025 .59298709 .33499146 .72698977 .33898927 .73098757 .34098817 .73399356 .34098817 .7389984 .34098817 .74598696 .33599855 .75 .32899476 .75 .31698609 .75 .22698975 .6779785 .17298889 .568985 .125 .47297669 .100997928 .36997987 .100997928 .25097657 .100997928 .17897034 .10998535 .064971927 .16499329-.053024293 .22399903-.17602539 .31698609-.24902344 .32899476-.24902344 .33599855-.24902344 .34098817-.24502564 .34098817-.23803711Z"/>
<path id="font_5_2" d="M.2979889 .25097657C.2979889 .3329773 .28599549 .4429779 .23399353 .5539856 .1749878 .6769867 .08198547 .75 .069992069 .75 .05999756 .75 .057998659 .74198916 .057998659 .7389984 .057998659 .73399356 .05999756 .73098757 .066986087 .72398379 .125 .6719818 .23498535 .5359802 .23498535 .25097657 .23498535 .10797119 .20899964-.091033939 .06399536-.22602844 .06199646-.22903443 .057998659-.23303223 .057998659-.23803711 .057998659-.24102783 .05999756-.24902344 .069992069-.24902344 .08198547-.24902344 .17199707-.17703247 .22599793-.06802368 .27398683 .02796936 .2979889 .13098145 .2979889 .25097657Z"/>
</defs>
<path transform="matrix(.50004,0,0,-.50004,1.3906746,126.15196)" stroke-width=".19925" stroke-linecap="butt" stroke-miterlimit="10" stroke-linejoin="miter" fill="none" stroke="#bfbfbf" d="M26.09343 0V226.1501M60.88467 0V226.1501M95.67592 0V226.1501M130.46718 0V226.1501M165.25843 0V226.1501M200.04967 0V226.1501"/>
<path transform="matrix(.50004,0,0,-.50004,1.3906746,126.15196)" stroke-width=".3985" stroke-linecap="butt" stroke-miterlimit="10" stroke-linejoin="miter" fill="none" stroke="#bfbfbf" d="M8.6978 0V226.1501M43.48906 0V226.1501M78.2803 0V226.1501M147.8628 0V226.1501M182.65404 0V226.1501M217.4453 0V226.1501"/>
<path transform="matrix(.50004,0,0,-.50004,1.3906746,126.15196)" stroke-width=".19925" stroke-linecap="butt" stroke-miterlimit="10" stroke-linejoin="miter" fill="none" stroke="#bfbfbf" d="M0 29.93163H226.1431M0 46.5603H226.1431M0 63.189H226.1431M0 96.44637H226.1431M0 113.07504H226.1431M0 129.70374H226.1431M0 162.96109H226.1431M0 179.58979H226.1431M0 196.21846H226.1431"/>
<path transform="matrix(.50004,0,0,-.50004,1.3906746,126.15196)" stroke-width=".3985" stroke-linecap="butt" stroke-miterlimit="10" stroke-linejoin="miter" fill="none" stroke="#bfbfbf" d="M0 79.81767H226.1431M0 146.33242H226.1431M0 212.84716H226.1431"/>
<path transform="matrix(.50004,0,0,-.50004,1.3906746,126.15196)" stroke-width=".19925" stroke-linecap="butt" stroke-miterlimit="10" stroke-linejoin="miter" fill="none" stroke="#7f807f" d="M26.09343 11.88544V14.72044M60.88467 11.88544V14.72044M95.67592 11.88544V14.72044M130.46718 11.88544V14.72044M165.25843 11.88544V14.72044M200.04967 11.88544V14.72044"/>
<path transform="matrix(.50004,0,0,-.50004,1.3906746,126.15196)" stroke-width=".19925" stroke-linecap="butt" stroke-miterlimit="10" stroke-linejoin="miter" fill="none" stroke="#7f807f" d="M8.6978 11.17688V15.42899M43.48906 11.17688V15.42899M78.2803 11.17688V15.42899M147.8628 11.17688V15.42899M182.65404 11.17688V15.42899M217.4453 11.17688V15.42899"/>
<path transform="matrix(.50004,0,0,-.50004,1.3906746,126.15196)" stroke-width=".19925" stroke-linecap="butt" stroke-miterlimit="10" stroke-linejoin="miter" fill="none" stroke="#7f807f" d="M111.65405 29.93163H114.48904M111.65405 46.5603H114.48904M111.65405 63.189H114.48904M111.65405 96.44637H114.48904M111.65405 113.07504H114.48904M111.65405 129.70374H114.48904M111.65405 162.96109H114.48904M111.65405 179.58979H114.48904M111.65405 196.21846H114.48904"/>
<path transform="matrix(.50004,0,0,-.50004,1.3906746,126.15196)" stroke-width=".19925" stroke-linecap="butt" stroke-miterlimit="10" stroke-linejoin="miter" fill="none" stroke="#7f807f" d="M110.94551 79.81767H115.19757M110.94551 146.33242H115.19757M110.94551 212.84716H115.19757"/>
<path transform="matrix(.50004,0,0,-.50004,1.3906746,126.15196)" stroke-width=".3985" stroke-linecap="butt" stroke-miterlimit="10" stroke-linejoin="miter" fill="none" stroke="#000000" d="M3.58653 13.30293H222.55657"/>
<path transform="matrix(-.50004,-0,0,.50004,3.184083,119.49996)" d="M3.58653 0C2.52383 .19925 .797 .797-.3985 1.49438V-1.49438C.797-.797 2.52383-.19925 3.58653 0"/>
<path transform="matrix(.50004,0,0,-.50004,112.67786,119.49996)" d="M3.58653 0C2.52383 .19925 .797 .797-.3985 1.49438V-1.49438C.797-.797 2.52383-.19925 3.58653 0"/>
<path transform="matrix(.50004,0,0,-.50004,1.3906746,126.15196)" stroke-width=".3985" stroke-linecap="butt" stroke-miterlimit="10" stroke-linejoin="miter" fill="none" stroke="#000000" d="M113.07155 3.58653V222.56356"/>
<path transform="matrix(0,.50004,.50004,0,57.93097,124.35855)" d="M3.58653 0C2.52383 .19925 .797 .797-.3985 1.49438V-1.49438C.797-.797 2.52383-.19925 3.58653 0"/>
<path transform="matrix(0,-.50004,-.50004,-0,57.93097,14.861282)" d="M3.58653 0C2.52383 .19925 .797 .797-.3985 1.49438V-1.49438C.797-.797 2.52383-.19925 3.58653 0"/>
<use data-text="&#x2212;" xlink:href="#font_1_1" transform="matrix(4.9816987,0,0,-4.9816987,2.5572663,125.53341)"/>
<use data-text="6" xlink:href="#font_2_3" transform="matrix(4.9816987,0,0,-4.9816987,6.4320757,125.53341)"/>
<use data-text="&#x2212;" xlink:href="#font_1_1" transform="matrix(4.9816987,0,0,-4.9816987,19.954159,125.53341)"/>
<use data-text="4" xlink:href="#font_2_2" transform="matrix(4.9816987,0,0,-4.9816987,23.828969,125.53341)"/>
<use data-text="&#x2212;" xlink:href="#font_1_1" transform="matrix(4.9816987,0,0,-4.9816987,37.35105,125.53341)"/>
<use data-text="2" xlink:href="#font_2_1" transform="matrix(4.9816987,0,0,-4.9816987,41.22586,125.53341)"/>
<use data-text="2" xlink:href="#font_2_1" transform="matrix(4.9816987,0,0,-4.9816987,74.08249,125.53341)"/>
<use data-text="4" xlink:href="#font_2_2" transform="matrix(4.9816987,0,0,-4.9816987,91.47937,125.53341)"/>
<use data-text="6" xlink:href="#font_2_3" transform="matrix(4.9816987,0,0,-4.9816987,108.87678,125.53341)"/>
<use data-text="2" xlink:href="#font_2_1" transform="matrix(4.9816987,0,0,-4.9816987,52.61677,87.8454)"/>
<use data-text="4" xlink:href="#font_2_2" transform="matrix(4.9816987,0,0,-4.9816987,52.61677,54.585245)"/>
<use data-text="6" xlink:href="#font_2_3" transform="matrix(4.9816987,0,0,-4.9816987,52.61677,21.32508)"/>
<g clip-path="url(#clip_3)">
<path transform="matrix(.50004,0,0,-.50004,1.3906746,126.15196)" stroke-width=".79701" stroke-linecap="butt" stroke-miterlimit="10" stroke-linejoin="miter" fill="none" stroke="#000000" d="M6.56999 26.29486 5.83673 26.17653 6.4548 26.2813 7.07286 26.38106 7.69093 26.48532 8.309 26.58508 8.92706 26.69035 9.54514 26.79512 10.1632 26.89938 10.78127 27.01012 11.39934 27.1144 12.01738 27.22363 12.63545 27.33438 13.25352 27.44363 13.87158 27.55338 14.48965 27.66812 15.10771 27.77786 15.72578 27.8931 16.34386 28.00784 16.96191 28.12209 17.57999 28.23682 18.19806 28.35706 18.8161 28.4713 19.43417 28.5915 20.05223 28.71124 20.6703 28.83047 21.28838 28.95567 21.90643 29.0749 22.5245 29.19962 23.14258 29.32483 23.76064 29.44955 24.37871 29.57976 24.99677 29.70396 25.61482 29.83418 26.2329 29.96338 26.85095 30.09358 27.46902 30.2228 28.0871 30.35748 28.70515 30.49217 29.32323 30.62688 29.9413 30.76207 30.55936 30.89676 31.17743 31.03642 31.79549 31.1761 32.41354 31.3158 33.03162 31.45547 33.64967 31.60013 34.26775 31.74431 34.88582 31.88997 35.50388 32.03465 36.12195 32.17932 36.74 32.32848 37.35808 32.47813 37.97615 32.62828 38.59421 32.77745 39.21227 32.9331 39.83034 33.08723 40.4484 33.24188 41.06647 33.39653 41.68452 33.55617 42.3026 33.71082 42.92067 33.87096 43.53873 34.03508 44.1568 34.19522 44.77487 34.35933 45.39293 34.52446 46.01099 34.69408 46.62904 34.85869 47.24712 35.02832 47.86519 35.19792 48.48325 35.37251 49.10132 35.54214 49.71939 35.71674 50.33745 35.89133 50.95552 36.07092 51.5736 36.25052 52.19164 36.4306 52.80971 36.61018 53.42776 36.79427 54.04584 36.97386 54.66391 37.16344 55.28197 37.3485 55.90004 37.53807 56.51811 37.72765 57.13617 37.9172 57.75424 38.11176 58.3723 38.30682 58.99036 38.50087 59.60843 38.70041 60.22649 38.90045 60.84456 39.1 61.46263 39.29956 62.08069 39.50407 62.69876 39.7091 63.31682 39.91814 63.93489 40.12767 64.55296 40.33717 65.17102 40.54721 65.78908 40.7617 66.40715 40.97623 67.0252 41.19571 67.64328 41.41473 68.26134 41.63472 68.87941 41.85422 69.49748 42.0787 70.11554 42.30319 70.73361 42.53317 71.35168 42.76215 71.96974 42.99211 72.5878 43.22658 73.20587 43.46103 73.82393 43.69551 74.442 43.93497 75.06006 44.17442 75.67813 44.41386 76.2962 44.65831 76.91426 44.90324 77.53233 45.15218 78.1504 45.40211 78.76846 45.65155 79.38652 45.90598 80.00458 46.16537 80.62265 46.41978 81.24072 46.67918 81.85878 46.94409 82.47685 47.2085 83.09492 47.47238 83.71298 47.73727 84.33105 48.01166 84.94911 48.28104 85.56718 48.55592 86.18524 48.82979 86.8033 49.10963 87.42137 49.38902 88.03944 49.67287 88.6575 49.9577 89.27557 50.24704 89.89363 50.53639 90.5117 50.82623 91.12978 51.12006 91.74783 51.41986 92.36589 51.71368 92.98396 52.01851 93.60202 52.3228 94.2201 52.6271 94.83817 52.9364 95.45622 53.2462 96.0743 53.56049 96.69235 53.87526 97.31042 54.18954 97.9285 54.5138 98.54655 54.83806 99.16463 55.16232 99.7827 55.48657 100.40076 55.82082 101.01883 56.15555 101.63689 56.4893 102.25496 56.82852 102.87303 57.16772 103.49109 57.51294 104.10916 57.85667 104.72723 58.21036 105.34529 58.56004 105.96336 58.91476 106.5814 59.27344 107.1995 59.63362 107.81755 59.99727 108.43561 60.36194 109.05368 60.7311 109.67175 61.10025 110.28981 61.4739 110.90788 61.85403 111.52594 62.23267 112.14401 62.61679 112.76208 63.0064 113.38014 63.38301 113.99821 63.77563 114.61629 64.17177 115.23434 64.56981 115.85242 64.97194 116.47047 65.37653 117.08855 65.78453 117.70662 66.19664 118.32468 66.61066 118.94275 67.0287 119.56082 67.44926 120.17888 67.87328 120.79695 68.30128 121.41502 68.73128 122.03308 69.16586 122.65115 69.60431 123.26921 70.04535 123.88728 70.48982 124.50536 70.93877 125.12341 71.39023 125.74149 71.84521 126.35956 72.30367 126.97762 72.76663 127.59569 73.23204 128.21375 73.70201 128.83182 74.1754 129.44989 74.65182 130.06795 75.13321 130.68602 75.6181 131.3041 76.10594 131.92214 76.59837 132.5402 77.09476 133.15827 77.59456 133.77634 78.09793 134.39441 78.60573 135.01247 79.11757 135.63054 79.63245 136.24861 80.15173 136.86667 80.67758 137.48474 81.2053 138.1028 81.73709 138.72086 82.2739 139.33893 82.81267 139.95699 83.35844 140.57506 83.9072 141.19313 84.46143 141.81119 85.01915 142.42926 85.58032 143.04734 86.14856 143.66539 86.71777 144.28347 87.29393 144.9015 87.87411 145.51958 88.4588 146.13765 89.04645 146.7557 89.64154 147.37378 90.23917 147.99185 90.84082 148.60991 91.44795 149.22798 92.06058 149.84604 92.67865 150.46411 93.30019 151.08219 93.92726 151.70023 94.55983 152.3183 95.19435 152.93637 95.83939 153.55443 96.48444 154.1725 97.13641 154.79056 97.79492 155.40863 98.45541 156.0267 99.12444 156.64476 99.79733 157.26284 100.47336 157.8809 101.15723 158.49895 101.84421 159.11702 102.54062 159.73508 103.24048 160.35315 103.9439 160.97122 104.65524 161.58928 105.37115 162.20735 106.09048 162.82543 106.81934 163.44348 107.5517 164.06156 108.28944 164.67963 109.03526 165.29767 109.78452 165.91574 110.54228 166.5338 111.30312 167.15187 112.07086 167.76995 112.84355 168.388 113.62477 169.00608 114.41103 169.62415 115.2032 170.2422 116.00284 170.86028 116.80804 171.47834 117.61766 172.09639 118.43633 172.71446 119.25888 173.33252 120.09048 173.95059 120.92812 174.56867 121.7687 175.18672 122.62071 175.8048 123.47974 176.42285 124.3408 177.04093 125.21231 177.659 126.08684 178.27706 126.97327 178.89511 127.86372 179.51319 128.76117 180.13124 129.6676 180.74932 130.57953 181.36737 131.49694 181.98545 132.42331 182.60352 133.35572 183.22158 134.29807 183.83965 135.24791 184.45772 136.20023 185.07576 137.1665 185.69384 138.13628 186.3119 139.11405 186.92996 140.10079 187.54804 141.09157 188.16609 142.09423 188.78417 143.10494 189.40224 144.12116 190.0203 145.1458 190.63837 146.17646 191.25644 147.22008 191.87448 148.27068 192.49256 149.32975 193.11061 150.39679 193.72869 151.46985 194.34676 152.5519 194.96482 153.6424 195.58289 154.74385 196.20096 155.85134 196.81902 156.9683 197.43709 158.0942 198.05515 159.23059 198.6732 160.373 199.29128 161.52539 199.90933 162.69019 200.5274 163.859 201.14548 165.03833 201.76354 166.22763 202.3816 167.42691 202.99967 168.63364 203.61774 169.85233 204.23581 171.07852 204.85387 172.31624 205.47193 173.56089 206.09 174.81702 206.70806 176.08359 207.32613 177.35669 207.9442 178.64426 208.56226 179.93982 209.18033 181.24582 209.79839 182.56429 210.41646 183.88726 211.03453 185.22377 211.65259 186.57263 212.27065 187.93007 212.88872 189.2994 213.50678 190.6793 214.12485 192.07009 214.7429 193.47093 215.36098 194.8822 215.97905 196.30695 216.5971 197.73662 217.21518 199.18732 217.83325 200.64351 218.45131 202.10866 219.06937 203.59079 219.68743 205.07886 220.3055 206.58345 220.40627 206.83017"/>
<path transform="matrix(-.4936295,.07967137,.07967137,.4936295,4.6759378,113.00348)" d="M-6.0708 2.72491 .34868 0-6.0708-2.72491Z"/>
<path transform="matrix(-.4936295,.07967137,.07967137,.4936295,4.6759378,113.00348)" stroke-width=".79701" stroke-linecap="butt" stroke-miterlimit="10" stroke-linejoin="miter" fill="none" stroke="#000000" d="M-6.0708 2.72491 .34868 0-6.0708-2.72491Z"/>
<path transform="matrix(.18896511,-.46293704,-.46293704,-.18896511,111.602619,22.728608)" d="M-6.0708 2.72491 .34868 0-6.0708-2.72491Z"/>
<path transform="matrix(.18896511,-.46293704,-.46293704,-.18896511,111.602619,22.728608)" stroke-width=".79701" stroke-linecap="butt" stroke-miterlimit="10" stroke-linejoin="miter" fill="none" stroke="#000000" d="M-6.0708 2.72491 .34868 0-6.0708-2.72491Z"/>
</g>
<path transform="matrix(.50004,0,0,-.50004,1.3906746,126.15196)" d="M28.08598 29.93163C28.08598 31.03209 27.1939 31.92418 26.09343 31.92418 24.99295 31.92418 24.10088 31.03209 24.10088 29.93163 24.10088 28.83115 24.99295 27.93907 26.09343 27.93907 27.1939 27.93907 28.08598 28.83115 28.08598 29.93163ZM26.09343 29.93163"/>
<path transform="matrix(.50004,0,0,-.50004,1.3906746,126.15196)" stroke-width=".3985" stroke-linecap="butt" stroke-miterlimit="10" stroke-linejoin="miter" fill="none" stroke="#000000" d="M28.08598 29.93163C28.08598 31.03209 27.1939 31.92418 26.09343 31.92418 24.99295 31.92418 24.10088 31.03209 24.10088 29.93163 24.10088 28.83115 24.99295 27.93907 26.09343 27.93907 27.1939 27.93907 28.08598 28.83115 28.08598 29.93163ZM26.09343 29.93163"/>
<path transform="matrix(.50004,0,0,-.50004,1.3906746,126.15196)" d="M202.04222 162.96109C202.04222 164.06157 201.15013 164.95365 200.04967 164.95365 198.94919 164.95365 198.05712 164.06157 198.05712 162.96109 198.05712 161.86063 198.94919 160.96854 200.04967 160.96854 201.15013 160.96854 202.04222 161.86063 202.04222 162.96109ZM200.04967 162.96109"/>
<path transform="matrix(.50004,0,0,-.50004,1.3906746,126.15196)" stroke-width=".3985" stroke-linecap="butt" stroke-miterlimit="10" stroke-linejoin="miter" fill="none" stroke="#000000" d="M202.04222 162.96109C202.04222 164.06157 201.15013 164.95365 200.04967 164.95365 198.94919 164.95365 198.05712 164.06157 198.05712 162.96109 198.05712 161.86063 198.94919 160.96854 200.04967 160.96854 201.15013 160.96854 202.04222 161.86063 202.04222 162.96109ZM200.04967 162.96109"/>
<path transform="matrix(.50004,0,0,-.50004,1.3906746,126.15196)" stroke-width=".3985" stroke-linecap="butt" stroke-miterlimit="10" stroke-linejoin="miter" fill="none" stroke="#000000" d=""/>
<use data-text="x" xlink:href="#font_4_2" transform="matrix(4.4835588,0,0,-4.4835588,123.66845,125.84894)"/>
<use data-text="f" xlink:href="#font_4_1" transform="matrix(4.4835588,0,0,-4.4835588,52.716779,4.6212389)"/>
<use data-text="(" xlink:href="#font_5_1" transform="matrix(4.4835588,0,0,-4.4835588,55.441495,4.6212389)"/>
<use data-text="x" xlink:href="#font_4_2" transform="matrix(4.4835588,0,0,-4.4835588,57.233137,4.6212389)"/>
<use data-text=")" xlink:href="#font_5_2" transform="matrix(4.4835588,0,0,-4.4835588,59.845346,4.6212389)"/>
</svg>
